# This file uses centimeters as units for non-parametric coordinates.

g default
v 0.000000 -1.000000 1.000000
v 1.000000 -1.000000 1.000000
v 0.000000 0.000000 1.000000
v 1.000000 0.000000 1.000000
v 0.000000 0.000000 0.000000
v 1.000000 0.000000 0.000000
v 0.000000 -1.000000 0.000000
v 1.000000 -1.000000 0.000000
v -1.000000 -1.000000 0.000000
v -1.000000 -1.000000 1.000000
v -1.000000 0.000000 1.000000
v -1.000000 0.000000 0.000000
v 0.000000 0.000000 0.000000
v 1.000000 0.000000 0.000000
v 1.000000 -1.000000 0.000000
v 0.000000 -1.000000 0.000000
v 0.000000 -1.000000 0.000000
v 0.000000 -1.000000 1.000000
v -1.000000 -1.000000 1.000000
v -1.000000 -1.000000 0.000000
v 0.000000 0.000000 0.000000
v 0.000000 -1.000000 0.000000
v -1.000000 -1.000000 0.000000
v -1.000000 0.000000 0.000000
v 0.000000 0.000000 -1.000000
v 1.000000 0.000000 -1.000000
v 1.000000 -1.000000 -1.000000
v 0.000000 -1.000000 -1.000000
v 0.000000 0.000000 -1.000000
v 0.000000 -1.000000 -1.000000
v -1.000000 -1.000000 -1.000000
v -1.000000 0.000000 -1.000000
v 0.000000 1.000000 1.000000
v 1.000000 1.000000 1.000000
v 1.000000 1.000000 0.000000
v 0.000000 1.000000 0.000000
v 0.000000 1.000000 1.000000
v 0.000000 1.000000 0.000000
v -1.000000 1.000000 0.000000
v -1.000000 1.000000 1.000000
v 0.000000 1.000000 0.000000
v 1.000000 1.000000 0.000000
v 1.000000 1.000000 -1.000000
v 0.000000 1.000000 -1.000000
v 0.000000 1.000000 0.000000
v -1.000000 1.000000 0.000000
v 0.000000 1.000000 -1.000000
v -1.000000 1.000000 -1.000000
vt 0.375000 0.000000
vt 0.625000 0.000000
vt 0.375000 0.250000
vt 0.625000 0.250000
vt 0.375000 0.500000
vt 0.625000 0.500000
vt 0.375000 0.750000
vt 0.625000 0.750000
vt 0.375000 1.000000
vt 0.625000 1.000000
vt 0.875000 0.000000
vt 0.875000 0.250000
vt 0.125000 0.000000
vt 0.125000 0.250000
vt 0.125000 0.000000
vt 0.375000 0.000000
vt 0.375000 0.250000
vt 0.125000 0.250000
vt 0.375000 0.500000
vt 0.625000 0.500000
vt 0.625000 0.750000
vt 0.375000 0.750000
vt 0.125000 0.000000
vt 0.375000 0.000000
vt 0.375000 0.000000
vt 0.125000 0.000000
vt 0.125000 0.250000
vt 0.125000 0.000000
vt 0.125000 0.000000
vt 0.125000 0.250000
vt 0.375000 0.500000
vt 0.625000 0.500000
vt 0.625000 0.750000
vt 0.375000 0.750000
vt 0.125000 0.250000
vt 0.125000 0.000000
vt 0.125000 0.000000
vt 0.125000 0.250000
vt 0.375000 0.250000
vt 0.625000 0.250000
vt 0.625000 0.500000
vt 0.375000 0.500000
vt 0.375000 0.250000
vt 0.125000 0.250000
vt 0.125000 0.250000
vt 0.375000 0.250000
vt 0.375000 0.500000
vt 0.625000 0.500000
vt 0.625000 0.500000
vt 0.375000 0.500000
vt 0.125000 0.250000
vt 0.125000 0.250000
vt 0.125000 0.250000
vt 0.125000 0.250000
vn 0.000000 0.000000 1.000000
vn 0.000000 0.000000 1.000000
vn 0.000000 0.000000 1.000000
vn 0.000000 0.000000 1.000000
vn 0.000000 1.000000 0.000000
vn 0.000000 1.000000 0.000000
vn 0.000000 1.000000 0.000000
vn 0.000000 1.000000 0.000000
vn 0.000000 0.000000 -1.000000
vn 0.000000 0.000000 -1.000000
vn 0.000000 0.000000 -1.000000
vn 0.000000 0.000000 -1.000000
vn 0.000000 -1.000000 0.000000
vn 0.000000 -1.000000 0.000000
vn 0.000000 -1.000000 0.000000
vn 0.000000 -1.000000 0.000000
vn 1.000000 0.000000 0.000000
vn 1.000000 0.000000 0.000000
vn 1.000000 0.000000 0.000000
vn 1.000000 0.000000 0.000000
vn -1.000000 0.000000 0.000000
vn -1.000000 0.000000 0.000000
vn -1.000000 0.000000 0.000000
vn -1.000000 0.000000 0.000000
vn 0.000000 -1.000000 0.000000
vn 0.000000 -1.000000 0.000000
vn 0.000000 -1.000000 0.000000
vn 0.000000 -1.000000 0.000000
vn 0.000000 0.000000 1.000000
vn 0.000000 0.000000 1.000000
vn 0.000000 1.000000 0.000000
vn 0.000000 1.000000 0.000000
vn 0.000000 1.000000 0.000000
vn 0.000000 1.000000 0.000000
vn 0.000000 0.000000 -1.000000
vn 0.000000 0.000000 -1.000000
vn 0.000000 0.000000 -1.000000
vn 0.000000 0.000000 -1.000000
vn 0.000000 0.000000 0.000000
vn 0.000000 0.000000 0.000000
vn 0.000000 0.000000 0.000000
vn 0.000000 0.000000 0.000000
vn 0.000000 0.000000 0.000000
vn 0.000000 0.000000 0.000000
vn 0.000000 0.000000 0.000000
vn 0.000000 0.000000 0.000000
vn 0.000000 0.000000 0.000000
vn 0.000000 0.000000 0.000000
vn 0.000000 0.000000 0.000000
vn 0.000000 0.000000 0.000000
vn 0.000000 0.000000 0.000000
vn 0.000000 0.000000 0.000000
vn 0.000000 0.000000 0.000000
vn 0.000000 0.000000 0.000000
vn 0.000000 0.000000 0.000000
vn 0.000000 0.000000 0.000000
vn 0.000000 0.000000 0.000000
vn 0.000000 0.000000 0.000000
vn 0.000000 0.000000 0.000000
vn 0.000000 0.000000 0.000000
vn 0.000000 0.000000 0.000000
vn 0.000000 0.000000 0.000000
vn 0.000000 0.000000 0.000000
vn 0.000000 0.000000 0.000000
vn 0.000000 0.000000 0.000000
vn 0.000000 0.000000 0.000000
vn 0.000000 0.000000 0.000000
vn 0.000000 0.000000 0.000000
vn 0.000000 0.000000 0.000000
vn 0.000000 0.000000 0.000000
vn 0.000000 0.000000 0.000000
vn 0.000000 0.000000 0.000000
vn 0.000000 0.000000 0.000000
vn 0.000000 0.000000 0.000000
vn 0.000000 0.000000 0.000000
vn 0.000000 0.000000 0.000000
vn 0.000000 0.000000 0.000000
vn 0.000000 0.000000 0.000000
vn 0.000000 0.000000 0.000000
vn 0.000000 0.000000 0.000000
vn 0.000000 0.000000 0.000000
vn 0.000000 0.000000 0.000000
vn 0.000000 0.000000 0.000000
vn 0.000000 0.000000 0.000000
vn 0.000000 0.000000 0.000000
vn 0.000000 0.000000 0.000000
vn 0.000000 1.000000 0.000000
vn 0.000000 1.000000 0.000000
vn 0.000000 1.000000 0.000000
vn 0.000000 1.000000 0.000000
vn 1.000000 0.000000 0.000000
vn 1.000000 0.000000 0.000000
vn 1.000000 0.000000 0.000000
vn 1.000000 0.000000 0.000000
vn 0.000000 -1.000000 0.000000
vn 0.000000 -1.000000 0.000000
vn 0.000000 -1.000000 0.000000
vn 0.000000 -1.000000 0.000000
vn -1.000000 0.000000 0.000000
vn -1.000000 0.000000 0.000000
vn -1.000000 0.000000 0.000000
vn -1.000000 0.000000 0.000000
vn 1.000000 0.000000 0.000000
vn 1.000000 0.000000 0.000000
vn 1.000000 0.000000 0.000000
vn 1.000000 0.000000 0.000000
vn 0.000000 -1.000000 0.000000
vn 0.000000 -1.000000 0.000000
vn 0.000000 -1.000000 0.000000
vn 0.000000 -1.000000 0.000000
vn -1.000000 0.000000 0.000000
vn -1.000000 0.000000 0.000000
vn -1.000000 0.000000 0.000000
vn -1.000000 0.000000 0.000000
vn 0.000000 1.000000 0.000000
vn 0.000000 1.000000 0.000000
vn 0.000000 1.000000 0.000000
vn 0.000000 1.000000 0.000000
vn 0.000000 0.000000 1.000000
vn 0.000000 0.000000 1.000000
vn 1.000000 0.000000 0.000000
vn 1.000000 0.000000 0.000000
vn 0.000000 0.000000 -1.000000
vn 0.000000 0.000000 -1.000000
vn 0.000000 0.000000 -1.000000
vn 0.000000 0.000000 -1.000000
vn -1.000000 0.000000 0.000000
vn -1.000000 0.000000 0.000000
vn -1.000000 0.000000 0.000000
vn -1.000000 0.000000 0.000000
vn 1.000000 0.000000 0.000000
vn 1.000000 0.000000 0.000000
vn 1.000000 0.000000 0.000000
vn 1.000000 0.000000 0.000000
vn 0.000000 0.000000 -1.000000
vn 0.000000 0.000000 -1.000000
vn 0.000000 0.000000 -1.000000
vn 0.000000 0.000000 -1.000000
vn -1.000000 0.000000 0.000000
vn -1.000000 0.000000 0.000000
vn 0.000000 0.000000 1.000000
vn 0.000000 0.000000 1.000000
vn 0.000000 0.000000 1.000000
vn 0.000000 0.000000 1.000000
vn 0.000000 0.000000 1.000000
vn 0.000000 0.000000 1.000000
vn 1.000000 0.000000 0.000000
vn 1.000000 0.000000 0.000000
vn 0.000000 0.000000 -1.000000
vn 0.000000 0.000000 -1.000000
vn -1.000000 0.000000 0.000000
vn -1.000000 0.000000 0.000000
vn 0.000000 0.000000 1.000000
vn 0.000000 0.000000 1.000000
vn 0.000000 0.000000 1.000000
vn 0.000000 0.000000 1.000000
vn 1.000000 0.000000 0.000000
vn 1.000000 0.000000 0.000000
vn 0.000000 0.000000 -1.000000
vn 0.000000 0.000000 -1.000000
vn -1.000000 0.000000 0.000000
vn -1.000000 0.000000 0.000000
g pCube1
f 1/1/1 2/2/2 4/4/3 3/3/4
f 33/3/5 34/4/6 35/6/7 36/5/8
f 25/31/9 26/32/10 27/33/11 28/34/12
f 7/7/13 8/8/14 2/10/15 1/9/16
f 2/2/17 8/11/18 6/12/19 4/4/20
f 9/15/21 10/16/22 11/17/23 12/18/24
f 17/28/25 18/1/26 19/16/27 20/29/28
f 1/1/1 3/3/4 11/17/29 10/16/30
f 37/3/31 38/14/32 39/18/33 40/17/34
f 29/35/35 30/36/36 31/37/37 32/38/38
f 5/5/39 6/6/40 14/20/41 13/19/42
f 6/6/43 8/8/44 15/21/45 14/20/46
f 8/8/47 7/7/48 16/22/49 15/21/50
f 7/7/51 5/5/52 13/19/53 16/22/54
f 7/13/55 1/1/56 18/24/57 17/23/58
f 1/1/59 10/16/60 19/25/61 18/24/62
f 10/16/63 9/15/64 20/26/65 19/25/66
f 9/15/67 7/13/68 17/23/69 20/26/70
f 5/14/71 7/13/72 22/28/73 21/27/74
f 7/13/75 9/15/76 23/29/77 22/28/78
f 9/15/79 12/18/80 24/30/81 23/29/82
f 12/18/83 5/14/84 21/27/85 24/30/86
f 41/5/87 42/6/88 43/32/89 44/31/90
f 14/6/91 15/8/92 27/33/93 26/32/94
f 15/8/95 16/7/96 28/34/97 27/33/98
f 16/7/99 13/5/100 25/31/101 28/34/102
f 21/27/103 22/28/104 30/36/105 29/35/106
f 22/28/107 23/29/108 31/37/109 30/36/110
f 23/29/111 24/30/112 32/38/113 31/37/114
f 46/51/115 45/52/116 47/53/117 48/54/118
f 3/3/4 4/4/3 34/40/119 33/39/120
f 4/4/20 6/6/19 35/41/121 34/40/122
f 6/6/123 5/5/124 36/42/125 35/41/126
f 5/5/127 3/3/128 33/39/129 36/42/130
f 3/3/131 5/14/132 38/44/133 37/43/134
f 5/14/135 12/18/136 39/45/137 38/44/138
f 12/18/24 11/17/23 40/46/139 39/45/140
f 11/17/29 3/3/4 37/43/141 40/46/142
f 13/5/143 14/6/144 42/48/145 41/47/146
f 14/6/91 26/32/94 43/49/147 42/48/148
f 26/32/10 25/31/9 44/50/149 43/49/150
f 25/31/101 13/5/100 41/47/151 44/50/152
f 24/30/153 21/27/154 45/52/155 46/51/156
f 21/27/103 29/35/106 47/53/157 45/52/158
f 29/35/35 32/38/38 48/54/159 47/53/160
f 32/38/113 24/30/112 46/51/161 48/54/162
